<?xml version="1.0" standalone="no"?>
<!DOCTYPE svg PUBLIC "-//W3C//DTD SVG 1.1//EN" "http://www.w3.org/Graphics/SVG/1.1/DTD/svg11.dtd" >
<svg xmlns="http://www.w3.org/2000/svg" xmlns:xlink="http://www.w3.org/1999/xlink" version="1.1">
<metadata></metadata>
<defs>
<font id="webfontregular" horiz-adv-x="2048" >
<font-face units-per-em="2048" ascent="1638" descent="-410" />
<missing-glyph horiz-adv-x="1024" />
<glyph horiz-adv-x="1024" />
<glyph horiz-adv-x="1024" />
<glyph unicode="&#xd;" />
<glyph />
<glyph />
<glyph />
<glyph />
<glyph />
<glyph />
<glyph />
<glyph horiz-adv-x="0" />
<glyph unicode="&#x9;" horiz-adv-x="1024" />
<glyph unicode="&#xa;" />
<glyph />
<glyph />
<glyph />
<glyph />
<glyph />
<glyph />
<glyph />
<glyph />
<glyph />
<glyph />
<glyph />
<glyph />
<glyph />
<glyph />
<glyph />
<glyph />
<glyph />
<glyph horiz-adv-x="0" />
<glyph />
<glyph horiz-adv-x="1024" d="M16 1121h980l-477 -1052z" />
<glyph unicode=" "  horiz-adv-x="1024" />
<glyph unicode="&#x09;" horiz-adv-x="1024" />
<glyph unicode="&#xa0;" horiz-adv-x="1024" />
<glyph unicode="!" horiz-adv-x="1024" d="M357 -174.5q0 36.5 17 67.5q18 32 50.5 49.5t66.5 17.5q32 -1 64 -18t50 -49t18.5 -67.5t-17.5 -66.5q-18 -32 -49 -49.5t-66 -17.5q-37 -1 -68.5 17.5t-48.5 49t-17 67zM379.5 1294q-0.5 50 15.5 81q14 27 38 41t58 15q38 0 63 -17.5t37 -51.5t11 -93q-1 -33 -5.5 -89.5 t-25.5 -372t-38 -552.5l-11 -146h-60q-11 143 -15 215l-31 464l-31 392q-5 64 -5.5 114z" />
<glyph unicode="&#x22;" horiz-adv-x="1023" d="M275 1435q-2 33 1 50q4 20 15.5 30.5t26 14.5t26.5 4q29 -1 42.5 -15t17.5 -28.5t4 -41.5q-1 -35 -3 -71l-8 -118q-3 -32 -7.5 -121.5t-11 -194.5t-9.5 -160l-3 -44q-1 -14 -7.5 -24t-16.5 -8q-8 0 -11.5 6t-3.5 17l-4 37l-7 91l-15 189l-8 135l-10 133zM614 1446 q0 27 6.5 46.5t23.5 32t46 9.5q21 -3 36 -14t21.5 -27.5t6.5 -43.5q-1 -19 -6 -58.5t-11 -104t-15.5 -152t-17 -162.5t-11.5 -110l-12 -88q-2 -11 -7.5 -36.5t-16 -29t-17 6.5t-6.5 22l-4 31v101q0 68 -4.5 176t-5.5 191t-4 142.5t-2 67.5z" />
<glyph unicode="#" d="M283 217v106h354l68 531h-417l1 106h432l62 441l58 -1l-57 -440h566l56 457l58 1l-53 -458h344v-106h-364l-71 -531h435v-106h-453l-64 -458h-58l61 459h-560l-61 -471l-56 -1l60 471h-341zM698 323h556l76 531h-560z" />
<glyph unicode="$" horiz-adv-x="999" d="M100 955q-1 108 73 189t210 94l55 6v171h100l1 -171q27 -2 94 -8.5t130.5 -61.5t83.5 -122.5t20 -139.5v-44q0 -30 -30.5 -35.5t-32.5 37.5l-3 44q-4 54 -27 104.5t-69 95t-103 52.5l-64 11l1 -481q47 -24 134 -69t160.5 -129t74 -204t-95 -202t-222.5 -102l-51 -9v-174 h-101v174q-26 3 -96 14.5t-131.5 62t-81 106.5t-24.5 145l-4 61q-1 27 20 30.5t28 -27.5l13 -66q17 -89 73.5 -153t110.5 -72l92 -21v525q-40 19 -136.5 67t-148.5 121t-53 181zM219.5 995q-2.5 -69 48.5 -132.5t124 -99.5l45 -23v440q-36 -5 -87.5 -15.5t-89.5 -55.5 t-40.5 -114zM539 58q30 6 72 18.5t94 66.5t52.5 128t-42.5 135q-42 57 -116 97l-60 33v-478z" />
<glyph unicode="%" horiz-adv-x="1508" d="M58 1016.5q0 93.5 16 157.5q11 45 40 102.5t74.5 87.5t109.5 30q33 -1 78 -19t75 -55.5t46 -82.5t25.5 -96t10.5 -123.5t-16 -159.5q-11 -55 -26 -87.5t-39.5 -64t-65 -58.5t-93.5 -27q-50 -1 -87 22t-61 54t-43 75t-31.5 97.5t-12.5 147zM190.5 1045q-0.5 -86 3.5 -142 q3 -54 10.5 -99.5t22.5 -77t34 -42.5t37 -10q18 0 37.5 11.5t36 47t23.5 85.5t7.5 155t-6.5 197q-7 78 -24 112t-35.5 46t-36.5 13q-22 0 -43 -14.5t-37.5 -49t-22.5 -90.5t-6.5 -142zM304 -136l804 1531h71l-800 -1531h-75zM950 231q-2 64 11 131.5t43 121t76 85.5t106 32 q58 -1 107 -34t77.5 -92.5t41 -116t12.5 -124.5q-1 -69 -13 -126.5t-40 -115.5t-81 -93.5t-110 -35.5q-47 -1 -83 20t-67 62.5t-54.5 110.5t-25.5 175zM1077.5 283q-0.5 -51 4.5 -125q4 -84 11 -126t22 -70.5t35 -38.5t34 -9q18 0 43.5 14t40.5 59.5t18 107.5t4 159.5 t-10 170.5q-7 43 -19.5 67t-34.5 40t-43 16q-17 -1 -37 -13.5t-35.5 -46.5t-24 -94t-9 -111z" />
<glyph unicode="&#x26;" horiz-adv-x="1596" d="M72 239.5q-2 82.5 28 156.5q28 70 88.5 134t112.5 95l183 115q-41 104 -60 173t-18 145q0 113 45 190.5t127.5 125.5t174.5 48q78 -1 137.5 -35.5t93 -93t34 -136t-31.5 -144.5q-42 -87 -78 -106l-204 -134q47 -92 84.5 -158t83.5 -132l96 -143q73 97 104 152t46.5 108.5 t15.5 106.5q-1 32 -9 54.5t-12 24.5l-77 47v28h428v-31q-63 -13 -91.5 -27t-57 -41.5t-42.5 -49t-67.5 -132t-95.5 -171.5l-90 -133q74 -81 121.5 -118.5t94.5 -54.5t104 -18q25 -1 45.5 4.5t23.5 11.5l101 125l26 -7q-18 -68 -35 -109.5t-52.5 -85.5t-86.5 -70.5t-116 -27 t-125 18t-99 55.5l-142 124q-81 -72 -135.5 -106t-152.5 -64t-188 -27q-98 2 -172.5 43t-116 114t-43.5 155.5zM279.5 327.5q-0.5 -71.5 43.5 -146.5q36 -64 92.5 -97t127.5 -33q92 -1 125 26l158 106q-102 127 -145 197l-82 144l-88 149q-76 -53 -117 -89t-65 -72.5 t-36.5 -74.5t-13 -109.5zM595 1143q-2 -107 41.5 -203t40.5 -97q28 13 66 33t75 63t58 97.5t22.5 127.5t-24.5 117q-19 30 -55 52t-73 23q-32 0 -63 -17t-59 -66t-29 -130z" />
<glyph unicode="'" horiz-adv-x="1024" d="M444 1431q-2 34 1 50q4 20 15.5 31t25.5 14t27 3q31 -1 43.5 -13.5t16.5 -28.5t4 -43q-1 -33 -3 -71l-8 -117q-2 -26 -7 -116.5t-11.5 -200t-9.5 -159.5l-3 -44q-1 -14 -7.5 -24t-16.5 -8q-8 0 -11.5 6t-3.5 17l-4 36l-7 91l-15 190l-8 135l-10 133z" />
<glyph unicode="(" horiz-adv-x="687" d="M116 649q2 99 17.5 201.5t57 213t124 232.5t161.5 220l33 41q8 11 21.5 21t21.5 9.5t15.5 -9.5t-5.5 -31l-33 -56q-34 -57 -91 -157.5t-80.5 -159.5t-45.5 -142t-36 -161.5t-17 -169t0 -156.5q3 -112 17.5 -195.5t32 -146t51 -152.5t138.5 -265l31 -52q36 -63 36.5 -74 t-9 -16t-25 4.5t-55.5 60.5l-38 47q-49 59 -128 177.5t-120 227.5t-56.5 211.5t-16.5 170.5t-1 106z" />
<glyph unicode=")" horiz-adv-x="687" d="M123.5 1579.5q6.5 9.5 14.5 10t22.5 -10t22.5 -19.5l33 -42q90 -116 165.5 -226.5t118 -224t58 -215.5t17 -170.5t1.5 -104.5q-3 -100 -18.5 -202.5t-56.5 -211.5t-120 -227.5t-127 -177.5l-38 -47q-41 -51 -56.5 -60.5t-24.5 -4.5t-9 16.5t37 74.5l30 51 q103 176 137.5 266.5t52 151.5t31.5 144t17 173t1 158q-4 116 -17.5 192.5t-35.5 160t-45 141t-84 166t-87 152.5l-34 56q-12 21 -5.5 30.5z" />
<glyph unicode="*" horiz-adv-x="1022" d="M157 787q0 23 8 37q9 15 27.5 22.5t36.5 7.5q26 -1 50 -13t60 -45l76 -73l89 -79q-5 59 -10.5 84t-30 99.5t-23.5 123.5q0 39 11.5 60t28.5 31.5t43 9.5q18 -2 33 -11t30.5 -34t16 -56.5t-14.5 -81.5q-31 -103 -34 -127l-16 -101q78 69 115 106l60 61q30 30 50.5 39.5 t42.5 9.5q23 -1 42.5 -12.5t30 -28.5t11 -37t-14.5 -41q-16 -21 -60 -43t-111 -39l-156 -42q49 -17 83.5 -28.5t87.5 -26.5t76.5 -25t45 -24.5t31.5 -37t2.5 -49.5t-31.5 -41t-60 -6q-34 6 -56 24t-52 53t-35 41l-97 95q8 -91 18 -134l22 -88q9 -42 10.5 -79t-5.5 -58 q-8 -22 -25.5 -37t-38.5 -16q-21 -2 -42.5 11t-32.5 30.5t-12.5 51.5t5.5 64q2 11 21 67.5t28 102.5l18 94q-51 -48 -75 -72l-62 -64q-31 -31 -56.5 -51t-45.5 -29.5t-38 -8.5q-26 0 -46 16t-26 50t27 70q9 10 24 19.5t105 39.5l168 52q-109 35 -181 49.5t-97.5 32t-37 40 t-11.5 45.5z" />
<glyph unicode="+" horiz-adv-x="1414" d="M88 526v173h526v528h172v-528h533v-173h-533v-530h-172v530h-526z" />
<glyph unicode="," horiz-adv-x="1024" d="M345 110q0 55 40 95t101 40q76 -2 115.5 -51.5t46 -105.5t-3.5 -108q-16 -76 -53.5 -133t-68.5 -83.5t-64 -51t-51 -20.5t-18.5 15.5t12.5 23.5l38 34q7 6 32.5 38t35 47t26.5 58t9.5 63t-18.5 24q-5 1 -25 -5t-35 -5q-55 2 -87 36t-32 89z" />
<glyph unicode="-" horiz-adv-x="1409" d="M85 528v172h1231v-172h-1231z" />
<glyph unicode="." horiz-adv-x="1025" d="M357 67.5q0 38.5 19 72.5q20 35 54.5 53.5t70.5 18.5q35 0 69.5 -18.5t74.5 -125.5q0 -39 -19.5 -72t-53 -52t-71.5 -19q-39 0 -72.5 19t-52.5 52t-19 71.5z" />
<glyph unicode="/" horiz-adv-x="1291" d="M82 -174l9 32l1023 1537q16 24 33.5 32t37.5 -7.5t11 -27.5l-10 -19l-1024 -1538q-17 -25 -33.5 -34.5t-35 -0.5t-11.5 26z" />
<glyph unicode="0" horiz-adv-x="1023" d="M81 679q1 79 14 173.5t36 162t59.5 130.5t86.5 113t108 80t141 31q61 0 111.5 -18.5t97 -55t89 -91.5t71 -118t46 -158.5t22 -187.5t0.5 -189q-5 -102 -18 -175.5t-36 -128.5t-62 -113.5t-84.5 -101.5t-106 -74.5t-138.5 -29.5q-53 1 -108 22.5t-100 58t-82.5 86 t-66.5 108t-47.5 143t-26 171.5t-6.5 162zM276 652q1 -172 6.5 -253.5t24.5 -164t50 -143t74.5 -82.5t96.5 -20q43 1 76.5 17.5t65 51.5t50.5 78.5t29.5 134t15 185.5t3.5 207q-2 120 -8 213.5t-14.5 145.5t-28 115t-47 100t-64 55.5t-73.5 19.5q-45 0 -83.5 -21t-70.5 -57 t-51 -82t-32.5 -117.5t-17.5 -140.5t-2 -242z" />
<glyph unicode="1" horiz-adv-x="1024" d="M240 1211l362 166v-1245q0 -83 6.5 -107.5t26.5 -38t53 -14.5l87 -5v-43h-519v39q30 2 51 5t47.5 10.5t40.5 19t24.5 34t10.5 91.5v949q0 46 -5.5 75.5t-15.5 41.5t-43 14q-28 1 -55 -6l-67 -16z" />
<glyph unicode="2" horiz-adv-x="1024" d="M69 -30q131 115 196 179.5t158.5 169.5t139 165.5t74.5 108t47 96t26 98t8 101.5q-1 57 -16 120t-48 105t-99.5 77t-138.5 36q-47 0 -85.5 -14.5t-79.5 -48t-57 -65.5l-53 -94h-32q12 72 25 112t41 88.5t73.5 86.5t101.5 59t121 24q45 1 105 -9t109.5 -34.5t87 -64 t63.5 -90.5t36 -105t6 -136q-4 -53 -11.5 -83.5t-29 -80t-39.5 -82.5t-49 -78.5t-106.5 -138t-197.5 -209.5l-196 -190q255 1 340 0t110.5 -0.5t65 6t80.5 23t48 31.5l38 58h37q-22 -53 -37 -92.5t-28 -79.5l-31 -95h-803v46z" />
<glyph unicode="3" horiz-adv-x="1024" d="M115.5 32q-1.5 22 3.5 34q6 13 31.5 26.5t43.5 14.5q22 1 72 -25t79.5 -36.5t67.5 -14.5q48 -6 104.5 3t99.5 36t74 75.5t45.5 97t12.5 102.5q-2 45 -17.5 91.5t-42.5 85.5t-80 77t-94 40l-177 19v37q67 12 108.5 24.5t76.5 35t68 58t54.5 84.5t22 111.5t-23.5 113.5 q-17 34 -46.5 61.5t-75.5 43t-104 15.5q-58 -1 -102.5 -17.5t-70.5 -46.5l-43 -49l-26 -34q-18 -16 -29.5 -11t-14 20t22.5 47l47 72q27 40 63 68t86 49.5t109 28.5q57 6 110 -2t93 -24t69.5 -42.5t53.5 -65t33 -71.5t6 -79q-4 -52 -19 -93.5t-45 -83t-67 -75.5l-55 -51 q72 -41 111.5 -69t69 -63.5t51.5 -89.5t24 -122.5t-12 -132.5q-13 -55 -37 -111t-57 -98.5t-82.5 -76t-111 -56t-117 -28.5t-138.5 -1q-46 2 -88 5.5t-73.5 16t-46.5 33.5t-16.5 43z" />
<glyph unicode="4" horiz-adv-x="1024" d="M51 274v104t5.5 54t37 63t94.5 138l427 635l60 91l113 -1l-1 -931h178v-153l-177 -1v-335h-170v335zM139 427h478v731z" />
<glyph unicode="5" horiz-adv-x="1024" d="M105 65q0 11 5.5 24.5t24.5 24.5t40 11q19 -1 35 -8.5t58 -31.5t84.5 -38t90.5 -14q41 -1 77 9t86 39.5t87 91t46.5 123t1.5 129.5q-11 76 -38.5 134t-70.5 105t-92 80.5t-104 52.5t-102 26.5t-103.5 13t-61.5 14.5t0 27l33 62l201 417l497 1l-76 -151h-409l-97 -206 q87 -18 140 -32.5t101 -37t101 -59.5t92.5 -83t68 -105.5t40.5 -113.5t7 -134q-4 -63 -18.5 -119.5t-41.5 -107t-66 -97.5t-99.5 -86t-125 -60.5t-138.5 -25.5q-69 -4 -117 5.5t-85 24.5t-55 38.5t-17 56.5z" />
<glyph unicode="6" horiz-adv-x="1024" d="M64 501q-2 103 9 173q9 58 31.5 124t47.5 116t62 103t97 108.5t129.5 102.5t146.5 77.5t153 44.5t103 13l86 -1v-29q-91 -10 -146.5 -24.5t-122.5 -53t-111.5 -74.5t-87 -82.5t-75.5 -100.5t-44 -87l-56 -148q74 39 117.5 56.5t102.5 30t118 8.5q52 -4 101 -22.5t93 -52 t69.5 -71.5t44 -92t23.5 -109.5t1 -116.5q-5 -71 -21 -137t-48.5 -129t-81.5 -107.5t-118 -72t-171 -24.5q-80 2 -136.5 22t-104.5 54t-83.5 74t-66.5 111t-45 142t-16 174zM254 471q0 -57 7 -123t25 -127t43 -109t55.5 -76.5t64 -41t97.5 -20.5q65 9 103 23.5t62.5 43.5 t36.5 69t18 86.5t6.5 115.5t-6.5 143q-8 71 -25 125.5t-48.5 93.5t-79 63t-111.5 25q-90 0 -142 -31l-97 -52q-5 -60 -7.5 -108t-1.5 -100z" />
<glyph unicode="7" horiz-adv-x="1024" d="M101 1060.5q-1 10.5 15 51.5l106 253l731 -1l-437 -1429h-108l385 1273q-89 -2 -133 -1l-121 1l-156 -1q-55 1 -81.5 -4t-45 -17.5t-45.5 -44t-42.5 -56.5t-29.5 -36t-25.5 -5t-12.5 16.5z" />
<glyph unicode="8" horiz-adv-x="1024" d="M134 274q1 30 10 72t30 80t54.5 73t87.5 79l92 76q-79 61 -117 94.5t-62.5 63t-51.5 86t-27.5 152t42.5 167.5q42 70 122 111.5t169 49.5q55 4 105 -3.5t77 -18t56 -29t60 -44t53.5 -60.5t35.5 -85t9 -98q-5 -45 -27.5 -95t-64.5 -94.5t-85 -69.5l-104 -65 q74 -55 124 -95t98 -94.5t71.5 -116.5t20.5 -138q-3 -58 -23 -112.5t-60.5 -103t-113.5 -88t-186 -40.5q-69 -1 -130.5 16.5t-113.5 51t-89 80t-50.5 94t-11.5 104.5zM281 288q0 -80 15 -127.5t41.5 -83.5t73.5 -64.5t126 -27.5q72 0 128.5 30t79 68.5t30.5 80t3 83.5 q-7 47 -31.5 92t-76.5 99.5t-102 93.5l-118 91q-45 -38 -71 -65t-51.5 -70t-36.5 -90t-10 -110zM288 1082q4 -49 22 -94.5t45.5 -78t71.5 -71t75 -55.5t41 -17q26 -1 69.5 27.5t73.5 72.5t42.5 84.5t16.5 99t-3 104.5q-11 63 -38 95t-73.5 55.5t-109.5 24.5 q-68 0 -118 -26.5t-74 -58t-35 -73t-6 -89.5z" />
<glyph unicode="9" horiz-adv-x="1024" d="M85 904q6 99 28.5 175t53 119t72 78.5t104.5 64.5t147 29q97 -1 161 -36t100 -66t72 -86.5t59 -128.5t31 -136t8.5 -146t-9.5 -150q-10 -62 -28.5 -116.5t-41 -103.5t-53 -97.5t-77.5 -100.5t-98 -94.5t-106 -76.5t-106.5 -54.5t-120 -34.5t-112.5 -13h-63v38 q21 4 48 8.5t56.5 11t70 20.5t81 36t87 61t88 90.5t82 121t53.5 109.5l42 122q-38 -29 -68.5 -47t-92.5 -35.5t-115 -16.5q-73 0 -132.5 26t-98 58.5t-68.5 82.5t-45 116t-9 172zM249 924q2 -88 12.5 -141.5t33 -106.5t58.5 -88.5t80.5 -47t102.5 -7.5q46 2 79 12t63 29.5 t46 42.5t15 101q-3 92 -10 181.5t-16.5 133.5t-24 90t-38 88.5t-77 71.5t-105.5 30q-55 0 -99.5 -25t-68 -60.5t-35 -77t-15.5 -99t-1 -127.5z" />
<glyph unicode=":" horiz-adv-x="1024" d="M374 -86.5q0 38.5 19 72.5q20 34 54.5 52.5t70.5 18.5q35 0 69.5 -18.5t74.5 -124.5q0 -39 -19.5 -72.5t-53 -52.5t-71.5 -19q-39 0 -72.5 19t-52.5 52.5t-19 72zM374 398.5q0 38.5 19 72.5q20 35 55 54t70 19q34 0 69 -19t55 -53.5t20 -72.5q-1 -39 -20 -72.5 t-52.5 -52.5t-71.5 -19q-39 0 -72.5 19t-52.5 52.5t-19 72z" />
<glyph unicode=";" horiz-adv-x="1023" d="M362 50.5q0 52.5 39.5 90t101.5 37.5q76 -2 114 -47.5t46.5 -94.5t-2.5 -100q-14 -63 -52 -116t-76 -78t-74.5 -42t-48 -12t-14 14.5t6.5 21.5q6 8 31 24.5t47 38.5t48.5 65t16 58t-18.5 18l-24 -2q-15 -2 -45.5 -1t-63 37t-32.5 88.5zM370 403q0 38 19.5 72.5t53.5 52.5 t71 19q37 0 70.5 -18t53.5 -53.5t20.5 -73.5t-19.5 -72q-20 -33 -53.5 -53t-71.5 -19q-38 0 -72.5 19.5t-53.5 52t-18 73.5z" />
<glyph unicode="&#x3c;" horiz-adv-x="1740" d="M52 615l1599 813v-189l-1226 -629l1226 -633v-189z" />
<glyph unicode="=" horiz-adv-x="1621" d="M92 220v173h1430v-173h-1430zM92 835v172h1430v-172h-1430z" />
<glyph unicode="&#x3e;" horiz-adv-x="1740" d="M76 -23l1226 633l-1226 629v189l1599 -813l-1599 -827v189z" />
<glyph unicode="?" horiz-adv-x="1024" d="M154 908q-2 41 7 83q7 31 22 63t45 68.5t66.5 62.5t84.5 43t116 20q55 2 107.5 -9.5t100 -42.5t79 -63t58 -96t29 -115.5t-7.5 -92.5q-11 -43 -36 -91t-46 -75.5t-68.5 -81.5t-81.5 -98.5t-50 -77.5t-30.5 -81t-14.5 -90l-7 -138l-55 1q-1 129 6.5 181t18.5 91t28 78.5 t42 93.5l44 94q38 82 60 142t27.5 121.5t-9.5 117.5q-13 46 -40 84.5t-62 59t-85 25.5q-41 4 -84.5 -4t-74 -30t-44.5 -52.5t-16.5 -61.5t22.5 -57l35 -31q16 -18 21 -48.5t-10.5 -65t-53 -45t-73.5 6.5q-33 14 -50.5 42t-19.5 69zM374.5 -178.5q-0.5 34.5 18.5 66.5 q18 32 49 48.5t64 16.5q32 -1 63 -17t49 -47.5t18 -66.5q-1 -36 -17.5 -65.5t-48 -47t-64.5 -17.5q-34 -1 -65 17t-48.5 48t-18 64.5z" />
<glyph unicode="@" horiz-adv-x="1773" d="M85 567q-4 114 22 228q19 86 54 162.5t84 141.5t105 119t154 110.5t193 78t171 25.5q75 3 140 -5.5t140.5 -31.5t138.5 -58.5t126 -87.5t112 -108t88 -137t55 -151t17.5 -146.5t-23.5 -167.5q-29 -102 -71 -160t-95.5 -106.5t-121.5 -88t-161 -38.5q-96 0 -136.5 40 t-48.5 81l-9 38q-44 -46 -87 -83t-106.5 -58.5t-134.5 -21.5q-90 -1 -141 23.5t-108 79.5t-52 201q2 66 29 142t54 125t71 107t94 108t106 80.5t105.5 42.5t90.5 13q41 0 116.5 -18.5t110.5 -82.5l22 -37l38 120l146 -42q-143 -369 -180.5 -484t-36.5 -137q0 -37 21.5 -62 t71.5 -28q40 -3 93.5 18t144.5 114t82 308q-5 106 -41 180.5t-91 147.5t-135 131t-202 99t-248 34q-65 -4 -125 -20.5t-135 -51.5t-143 -93.5t-109.5 -116t-73 -119t-49 -132.5t-20 -166.5t13.5 -168.5q17 -85 62.5 -172.5t116 -165.5t201.5 -141t302 -64q135 -2 248.5 40 t200 109t130.5 110l51 49l72 -64q-30 -36 -62.5 -72.5t-102 -96.5t-167.5 -107t-195.5 -68t-181.5 -21q-156 -2 -321.5 66t-275.5 203t-155 263t-49 242zM529 424q-2 -62 32 -99q26 -31 67 -39.5t80 -5.5q72 4 120.5 32.5t102.5 93.5q59 71 97 137t58.5 136.5t8.5 128.5 q-9 40 -38.5 73.5t-98.5 40.5q-59 5 -118.5 -20.5t-109 -71t-103.5 -126.5t-75 -149.5t-23 -130.5z" />
<glyph unicode="A" horiz-adv-x="1595" d="M43.5 -29.5q-3.5 30.5 30.5 30.5h58q29 0 52 12t41 34t31 59l446 1277q15 43 49 44h2q33 0 48 -39l486 -1279q20 -54 53.5 -81t71.5 -27h33q30 0 30 -30.5t-30 -30.5h-467q-28 0 -28 30.5t28 30.5h36q67 0 84 13q18 12 22 30q1 3 1 9q0 20 -15 63l-138 371h-502 l-132 -387q-8 -23 -7 -45t25 -38t87 -16h66q33 0 33 -30.5t-33 -30.5h-431q-27 0 -30.5 30.5zM487 542h459l-242 641z" />
<glyph unicode="B" horiz-adv-x="1380" d="M63 1381q0 33 33 33h674q74 0 168 -24q94 -26 166 -116q70 -87 70 -204v-10q-2 -74 -33 -132.5t-88.5 -106.5t-113.5 -70l-67 -28q66 -11 126.5 -27t124.5 -72q63 -54 91 -130q26 -70 26 -146v-11q-4 -107 -48.5 -184.5t-116 -125t-146.5 -65t-164 -17.5h-658 q-30 0 -34.5 32.5t37.5 32.5h52q47 0 70.5 26t23.5 85v1128q0 50 -26 74.5t-76 24.5h-58q-33 0 -33 33zM425 751h299q62 0 118 27t98 96q42 67 41 181v5q-1 96 -37 161.5t-95 96t-120 30.5h-178q-71 0 -98.5 -35t-27.5 -70v-492zM428 123q0 -45 33.5 -79t66.5 -34h214 q80 0 153 37t109 116t40 183v20q0 93 -35 164q-50 99 -121 126.5t-157 27.5h-303v-561z" />
<glyph unicode="C" horiz-adv-x="1487" d="M192 685q1 144 31.5 264t94.5 225.5t174 174.5t264 77q15 1 29 0q72 0 140 -16l98 -28q31 -8 50 -6q26 2 58 22l40 24l98 -333q10 -35 -13.5 -46t-38.5 15l-28 47q-30 48 -67.5 98t-117.5 104q-74 50 -191 50h-18q-110 -5 -203 -67t-137.5 -161t-66.5 -212 q-21 -108 -20 -212v-10q1 -199 69 -341t171 -215t236 -75h13q107 0 181 46q78 49 134 122.5t81 112.5l28 44q17 27 34 17.5t4 -41.5l-22 -53q-18 -43 -71.5 -131t-159 -162.5t-250.5 -80.5q-13 -1 -27 -1q-143 0 -257 70q-124 76 -196.5 174.5t-108.5 220.5q-35 118 -35 274 v9z" />
<glyph unicode="D" horiz-adv-x="1491" d="M69 1367.5q-2 33.5 30 33.5h594q58 0 118 -7.5t135 -31.5t173.5 -84t158.5 -174q61 -114 79 -206q19 -94 19 -218q0 -118 -25 -230q-35 -158 -113 -268.5t-180 -163t-192.5 -67.5t-169.5 -15h-589q-28 0 -27.5 33t27.5 33h55q31 0 53 14t31.5 37.5t9.5 64.5v1105 q0 37 -11.5 61t-33.5 37t-57 13h-55q-28 0 -30 33.5zM430 133q0 -52 7 -72.5t33 -39.5t69 -19h171q78 6 162.5 27.5t175.5 131t116.5 243t25.5 295.5q-1 91 -11.5 182.5t-58.5 184.5t-117 153t-151 87.5t-139 27.5h-156q-55 0 -79 -15.5t-36 -35t-12 -53.5v-1097z" />
<glyph unicode="E" horiz-adv-x="1280" d="M68 1359.5q0 32.5 33 32.5h1058l31 -351q2 -30 -18 -36.5t-35 22.5l-27 50q-24 43 -67.5 99t-93 88t-111 47t-137.5 15h-158q-69 0 -84.5 -12.5t-20.5 -37.5l1 -66v-492h237q52 0 80.5 18t43 51.5t14.5 87.5v78q0 28 31.5 29.5t31.5 -29.5v-526q0 -32 -31.5 -30.5 t-31.5 30.5v89q0 55 -15 86t-41.5 45.5t-73.5 14.5h-245v-539q0 -76 7.5 -88.5t28.5 -22.5t68 -10h229q59 0 117.5 18t115.5 63.5t83.5 87.5t54.5 99l25 52q14 30 33 24.5t16 -32.5l-49 -375h-1062q-32 0 -33.5 31.5t33.5 31.5h50q33 0 57 10.5t38 30.5t15 83l1 1073 q0 75 -30.5 100.5t-80.5 26.5l-56 1q-32 0 -32 32.5z" />
<glyph unicode="F" horiz-adv-x="1303" d="M36 1373q0 22 27 22h1086l45 -362q3 -30 -17 -36.5t-33 17.5l-28 49q-39 66 -77 113.5t-84.5 81t-109 55t-124.5 21.5h-160q-126 0 -143 -27.5t-17 -74.5v-512l248 1q26 0 50 9t39 29.5t25.5 63t10.5 72.5v66q0 30 30 32.5t30 -32.5v-525q0 -39 -30 -37t-30 32v74 q0 31 -7 62t-24 53t-41.5 33.5t-55.5 11.5h-245v-531q0 -71 13 -89.5t38.5 -27.5t94.5 -9h58q34 0 32.5 -31.5t-32.5 -31.5h-528q-29 0 -30.5 31.5t30.5 31.5h41q38 0 62 11t36.5 29.5t12.5 80.5v1070q0 41 -10.5 73t-36.5 47t-69 15h-50q-27 17 -27 39z" />
<glyph unicode="G" horiz-adv-x="1467" d="M98 532q-7 59 -7 122q0 74 10 151q20 154 76 276t144.5 198.5t199.5 109.5q105 31 210 31h13q57 -2 102.5 -10.5t92.5 -24.5t65 -18q37 -7 56.5 3.5t31.5 27.5l14 22q9 12 27.5 14.5t30.5 -31.5l108 -318q5 -14 5 -26q0 -22 -19 -31q-29 -14 -47 16l-25 39 q-28 42 -68.5 89t-103.5 90t-150 70q-49 15 -103 15q-45 0 -94 -10q-73 -15 -145.5 -59.5t-136 -135.5t-87.5 -200t-28 -218v-59q0 -73 6 -129q15 -156 83 -285.5t171 -185.5t220 -60q11 -1 22 -1q99 0 170 40q78 45 100.5 106t22.5 110v167q0 39 -13.5 64t-42 37.5 t-91.5 12.5h-85q-33 0 -34.5 32t34.5 32h536q34 0 32.5 -32t-32.5 -32h-53q-37 0 -56.5 -13t-28.5 -32t-9 -42v-454q0 -22 -14 -27.5t-30 5.5l-22 19q-25 18 -64 19q-35 0 -94.5 -23t-117.5 -40.5t-139 -18.5h-10q-90 0 -191 32q-108 35 -211.5 120t-159 200.5t-71.5 245.5z " />
<glyph unicode="H" horiz-adv-x="1701" d="M51.5 1342.5q-1.5 33.5 36.5 33.5h508q28 0 30 -33.5t-30 -33.5h-75q-39 0 -56.5 -15t-22.5 -34q-4 -16 -4 -54v-16l1 -480l701 1v496q0 36 -5 55.5t-19 33t-61 13.5h-66q-39 0 -39.5 33.5t39.5 33.5h486q33 0 35.5 -34.5t-35.5 -34.5h-58q-50 0 -69.5 -11.5t-29 -32.5 t-9.5 -59v-1070q0 -67 16 -90t44 -35t78 -12h36q36 0 38.5 -30t-38.5 -30h-483q-39 0 -36.5 30t36.5 30h66q33 0 48 12t20.5 31t5.5 90v526l-701 1v-528l-1 -80q6 -21 29 -36.5t88 -15.5h49q36 0 36 -30t-36 -30h-492q-32 0 -34 30t37 30h50q36 0 61 15.5t34.5 36.5t9.5 74 v1056q0 41 -9 67t-36.5 44.5t-81.5 18.5h-55q-35 0 -36.5 33.5z" />
<glyph unicode="I" horiz-adv-x="707" d="M72.5 1364.5q1.5 30.5 27.5 30.5h495q40 0 42 -30.5t-42 -30.5h-53q-46 0 -68.5 -13.5t-29 -30t-6.5 -53.5v-1114q0 -58 9.5 -76.5t34 -34t74.5 -15.5h53q30 0 29.5 -29t-29.5 -29h-492q-33 0 -33.5 29t33.5 29h69q31 0 46.5 11.5t23 31.5t7.5 72v1114q0 46 -4.5 61 t-22 31t-64.5 16h-72q-29 0 -27.5 30.5z" />
<glyph unicode="J" horiz-adv-x="906" d="M90 75q2 27 20.5 50t51.5 28q27 3 58 -13.5t44 -47.5l11 -36q9 -24 33 -37t54 -7q48 8 72.5 50.5t27 90t2.5 193.5v877q1 11 1 20q0 29 -7 46q-9 23 -34 36.5t-61 13.5h-71q-34 0 -34.5 30.5t34.5 30.5h500q41 0 40.5 -30.5t-37.5 -30.5h-64q-39 0 -67 -15.5t-33 -39.5 l5 -56v-879q0 -128 -23.5 -207t-60.5 -116t-99 -65t-121 -35q-27 -4 -51 -4q-48 0 -84 16q-53 22 -81 57q-26 32 -26 72v8z" />
<glyph unicode="K" horiz-adv-x="1605" d="M58 1358q0 29 30 29h503q32 0 32.5 -29t-32.5 -29h-64q-41 0 -63 -17.5t-27 -29.5t-5 -61v-602l588 605q26 26 33 52.5t-3.5 39.5t-38.5 13h-58q-31 0 -30.5 29t30.5 29h437q32 0 32.5 -29t-32.5 -29h-47q-52 0 -99.5 -21.5t-73.5 -43.5l-49 -51l-365 -375l483 -675 q43 -61 76 -95t68 -49.5t62 -16.5l33 -2q33 -2 33.5 -32.5t-33.5 -30.5h-511q-37 0 -36.5 31.5t36.5 31.5h55q50 0 64 11q17 13 17.5 32.5t-30.5 65.5l-413 601l-16 13l-212 -205v-419q0 -34 8.5 -51.5t27 -32.5t90.5 -15h50q41 0 38 -31.5t-38 -31.5h-506q-32 0 -37.5 31.5 t37.5 31.5h44q64 0 81.5 13t25 28.5t7.5 80.5v1096q0 60 -6 72.5t-29.5 25.5t-73.5 13h-63q-30 0 -30 29z" />
<glyph unicode="L" horiz-adv-x="1276" d="M44 1357.5q0 30.5 33 30.5h495q28 0 32.5 -30.5t-32.5 -30.5h-59q-43 0 -63 -12.5t-27.5 -32.5t-7.5 -50v-1113q0 -51 14 -74t53.5 -35t125.5 -12h140q72 0 137.5 15t114.5 53t75.5 86.5t48.5 107.5l26 71q8 22 27.5 23t17.5 -23l-43 -393h-1067q-26 0 -25.5 30t31.5 30 h44q41 0 63.5 12.5t33.5 34t11 74.5v1110q0 47 -6 59.5t-32 25.5t-70 13h-58q-33 0 -33 30.5z" />
<glyph unicode="M" horiz-adv-x="1856" d="M21 1367q0 35 36 35h362l485 -1194l454 1194h362q33 0 36 -35t-36 -35h-71q-41 0 -57.5 -11.5t-19 -21t-2.5 -52.5v-1121q0 -56 11.5 -80t36.5 -37t72 -13h66q31 0 31 -28t-31 -28h-508q-28 0 -28 28t28 28h47q38 0 60.5 14t30.5 33.5t8 75.5v1161l-496 -1305 q-13 -33 -40.5 -35.5t-43.5 38.5l-500 1231l2 -1120q0 -39 15.5 -55.5t50 -27t84.5 -10.5h49q36 0 33.5 -28t-33.5 -28h-439q-28 0 -32 28t32 28h61q33 0 62 10t40 26.5t11 52.5v1108q0 64 -10 87.5t-33.5 37.5t-78.5 14h-71q-36 0 -36 35z" />
<glyph unicode="N" horiz-adv-x="1596" d="M58 1367.5q1 31.5 38 31.5l328 -1l840 -1178l1 999q0 39 -8 60.5t-26.5 39t-53.5 17.5h-88q-33 0 -34.5 31.5t34.5 31.5h384q51 0 51 -36q0 -27 -46 -27h-58q-48 0 -64.5 -12.5t-23 -31t-6.5 -58.5v-1251q0 -36 -36 -45q-8 -2 -16 -2q-26 0 -43 25l-898 1279l1 -1137 q0 -42 13.5 -63.5t34 -31t71.5 -9.5h50q31 0 35 -30.5t-41 -30.5h-384q-34 0 -32 30.5t32 30.5h66q26 0 46.5 10.5t34 33.5t13.5 60v1114q0 31 -11.5 57.5t-34 44t-67.5 17.5h-64q-39 0 -38 31.5z" />
<glyph unicode="O" horiz-adv-x="1481" d="M61 666v8q1 120 29 244q30 128 117.5 250.5t213 185.5t275.5 67h16q129 1 244 -45q122 -48 198.5 -131t115.5 -161q38 -78 66 -180q26 -96 25 -220v-18q-4 -167 -58 -303.5t-145 -236.5q-92 -100 -212 -148q-116 -47 -240 -46h-10q-130 1 -235 48t-209.5 160.5 t-146.5 247.5t-44 278zM243 666q3 -132 30.5 -246t95 -216t142.5 -152.5t181 -53.5h18q92 0 180 44q96 50 164.5 158t91.5 218q21 101 21 226v22q-3 133 -27 245.5t-84.5 218.5t-156.5 167q-94 60 -203 60h-4q-117 -2 -217 -72.5t-154.5 -188t-67.5 -226.5q-11 -89 -11 -168 q0 -18 1 -36z" />
<glyph unicode="P" horiz-adv-x="1250" d="M41.5 1357q-2.5 32 33.5 32h638q94 0 184.5 -18t161.5 -72t101 -129q31 -76 31 -181q0 -102 -36 -172q-48 -95 -144 -142.5t-201 -57t-213 -10.5l-171 -2v-499q0 -49 9 -67.5t26.5 -28.5t66.5 -10h66q39 0 38.5 -32t-38.5 -32h-511q-34 0 -33.5 32t33.5 32h61q45 0 68 12 t32.5 31t9.5 91v1103q0 27 -10.5 45.5t-30 30.5t-61.5 12h-77q-31 0 -33.5 32zM427 662h171q102 0 185 20t151 90.5t68 218.5q-1 107 -51 192t-117 113.5t-124 28.5h-140q-55 0 -83.5 -14.5t-44 -32t-15.5 -50.5v-566z" />
<glyph unicode="Q" horiz-adv-x="1448" d="M53 705q5 146 47 267t130.5 230.5t203.5 159.5t240 53h16q126 0 240 -45q122 -48 221 -151.5t140.5 -238.5t42.5 -286q1 -6 1 -11q0 -146 -41 -280q-46 -149 -121 -239.5t-145 -135.5l-45 -29q32 -68 71 -111t102 -43h4q44 0 77 23q34 25 46.5 31.5t23.5 -0.5t1 -34 q-4 -9 -24 -31l-17 -20q-33 -37 -84 -59q-49 -21 -98 -21h-4q-63 0 -112 32t-82 116l-29 69q-49 -13 -124 -27q-23 -4 -51 -4q-61 0 -141 21q-118 31 -199 93t-148 155.5t-107 219.5q-36 112 -36 259q0 18 1 37zM234 672v-9q0 -112 22 -207q31 -142 109 -262l29 -46 q3 40 14.5 91.5t64.5 93.5t122 47h15q43 0 81 -14q45 -17 79.5 -47t63.5 -72.5t61 -103.5l34 -66q29 26 60 58.5t72.5 110.5t64.5 186q20 90 20 212q0 26 -1 54q-6 149 -36.5 256t-89 193t-143.5 141q-82 53 -190 53h-12q-91 -3 -171 -48.5t-136 -121.5t-84.5 -165 t-38 -152.5t-10.5 -181.5zM455 173v-14q0 -60 23 -90q24 -33 87 -52t108 -20h19q54 0 92 15q44 17 45 16q-11 34 -20.5 60t-34.5 79t-70 103t-116 50q-55 -1 -92.5 -39t-40.5 -108z" />
<glyph unicode="R" horiz-adv-x="1536" d="M74.5 1374.5q-6.5 33.5 34.5 33.5h677q128 0 249 -37.5t183 -122.5t64 -204q0 -4 -1 -9q0 -113 -38 -180q-49 -85 -140.5 -126.5t-181.5 -50.5l-72 -8l359 -554q22 -36 52 -65.5t57.5 -37t65.5 -7.5h88q34 0 35.5 -34.5t-35.5 -33.5l-330 2l-473 731h-209v-557 q0 -57 8 -72t23.5 -25.5t71.5 -10.5h69q32 0 32.5 -34t-35.5 -34h-500q-27 0 -31.5 34t31.5 34h44q56 0 78.5 10.5t33 34t10.5 85.5v1089q0 38 -7.5 59t-26 39t-85.5 18h-66q-28 0 -34.5 33.5zM459 725h322q92 0 161 31q70 30 112 110q40 75 39 155v11q-4 87 -49.5 160.5 t-119.5 111t-166 37.5h-158q-57 0 -82.5 -13t-42 -35t-16.5 -70v-498z" />
<glyph unicode="S" horiz-adv-x="1141" d="M55 366q-12 35 11.5 46.5t38.5 -14.5l35 -63q22 -41 88 -129.5t166.5 -145.5t223.5 -58h5q75 0 145 28q72 29 122.5 99.5t50.5 169.5q-1 86 -40.5 141t-119 94.5t-215 84.5t-228.5 91t-150.5 130t-61.5 196v11q0 105 59 199q56 90 152 140q91 47 209 47h14q67 -2 114 -17 t97 -42q41 -22 62 -22q5 0 9 1q12 3 22 13l20 25q9 9 26.5 11.5t28.5 -27.5l116 -349q9 -30 -14.5 -43t-40.5 21l-25 47q-24 43 -80 119t-142.5 137t-193.5 61q-107 -1 -177 -64t-85 -171q-3 -23 -4 -45q0 -80 44 -140q38 -55 116.5 -93.5t213 -81t228 -89.5t151 -134.5 t59.5 -199.5v-8q0 -108 -55 -199q-52 -87 -145.5 -143t-208.5 -65q-28 -3 -55 -3q-46 0 -87 8q-66 12 -107 26l-108 35q-34 8 -49 0q-14 -6 -20 -21l-8 -22q-10 -21 -30 -23t-31 31z" />
<glyph unicode="T" horiz-adv-x="1418" d="M35 1059l67 346l1196 2l77 -337q6 -28 -16 -36.5t-36 16.5l-36 58q-17 27 -55 76t-97 90.5t-124 56.5t-128 16q-52 0 -70 -12t-25 -23t-7 -130v-1002q0 -141 11 -151t43 -22t65 -12h85q27 0 31 -29t-39 -29h-556q-30 0 -34.5 29t34.5 29h73q45 0 74 17.5t36.5 36 t7.5 70.5v1067q0 101 -18 122q-20 22 -46 32q-19 8 -56 7q-14 0 -32 -1q-62 -5 -103.5 -19.5t-91.5 -56t-81.5 -77t-55.5 -74.5l-41 -66q-21 -34 -38.5 -26t-13.5 32z" />
<glyph unicode="U" horiz-adv-x="1515" d="M64 1398.5q0 30.5 27 30.5h550q35 0 35.5 -30.5t-35.5 -30.5h-58q-67 0 -89.5 -16t-32 -35t-9.5 -90v-747q0 -158 33 -248t127 -138q92 -47 197 -47h4q124 0 223.5 59t119.5 131t21 161l2 844q0 49 -9 72.5t-26 38.5t-61 15h-69q-44 0 -41.5 30.5t41.5 30.5h390 q30 0 33 -30.5t-33 -30.5h-55q-59 0 -76 -12.5t-24.5 -29.5t-7.5 -60v-882q0 -112 -19.5 -183t-82.5 -131t-142 -91.5t-184 -38.5q-24 -2 -48 -2q-73 0 -149 16q-102 21 -180 85t-112.5 162t-34.5 218v828q0 52 -6 67.5t-34 34.5t-78 19h-80q-27 0 -27 30.5z" />
<glyph unicode="V" horiz-adv-x="1527" d="M51 1368.5q0 30.5 36 30.5h505q40 0 42 -30.5t-42 -30.5l-99 -1q-68 -1 -71.5 -22t-2.5 -30.5t13 -41.5l378 -1050l346 1026q10 31 10 54q0 7 -1 15q-5 28 -23.5 39t-62.5 11h-86q-34 0 -37 30.5t37 30.5h467q39 0 38.5 -30.5t-38.5 -30.5h-72q-62 0 -87 -17t-37.5 -36 t-26.5 -61l-429 -1253q-14 -40 -50 -48h-3q-34 0 -83 135l-419 1178q-10 27 -29 53.5t-35 37.5t-53 11h-49q-36 0 -36 30.5z" />
<glyph unicode="W" d="M55 1385.5q1 31.5 33 31.5h489q31 0 32.5 -31.5t-32.5 -31.5h-63q-56 0 -72.5 -16.5t-21 -39.5t7.5 -62l294 -988l247 918l-31 98q-8 22 -27 45.5t-38.5 34t-58.5 10.5h-52q-35 0 -33.5 31.5t33.5 31.5h489q32 0 33.5 -31.5t-33.5 -31.5h-80q-42 0 -53.5 -12t-16 -30 t8.5 -62l280 -979l256 960q9 37 8 62.5t-17 43t-79 17.5h-66q-41 0 -39.5 31.5t39.5 31.5h426q35 0 34.5 -31.5t-34.5 -31.5h-70q-35 0 -58 -11.5t-40.5 -28.5t-23.5 -43l-334 -1274q-14 -51 -47 -53q-1 0 -2 -1q-31 0 -44 49l-286 1015l-282 -986q-20 -67 -54 -67h-1 q-34 0 -52 64l-341 1123q-19 59 -40.5 109t-48 77t-57.5 27h-49q-34 0 -33 31.5z" />
<glyph unicode="X" horiz-adv-x="1542" d="M53.5 -32.5q-1.5 30.5 34.5 30.5h67q36 0 64.5 10t52 30.5t54.5 68.5l346 543l-371 587q-20 30 -42 51t-50.5 35t-48.5 14h-55q-28 0 -28.5 32.5t30.5 32.5h498q34 0 35.5 -32.5t-35.5 -32.5h-61q-53 0 -56.5 -13t4.5 -43t18 -44l273 -422l278 423q15 23 14.5 49 t-11.5 38t-61 12h-86q-32 0 -30.5 32.5t30.5 32.5h468q31 0 32.5 -32.5t-32.5 -32.5h-75q-35 0 -66 -14.5t-57.5 -38.5t-46.5 -55l-316 -485l368 -591q30 -50 59.5 -81t59 -52.5t60.5 -21.5h72q31 0 33 -30.5t-33 -30.5h-567q-32 0 -34 30.5t34 30.5h83q50 0 60.5 18.5 t8.5 48t-15 51.5l-294 462l-299 -456q-26 -40 -26.5 -69.5t14.5 -42t76 -12.5h85q30 0 28 -30.5t-28 -30.5h-481q-33 0 -34.5 30.5z" />
<glyph unicode="Y" horiz-adv-x="1594" d="M86 1368q0 32 33 32h555q28 0 27.5 -32t-27.5 -32h-105q-63 0 -73 -13.5t-9.5 -34.5t20.5 -54l365 -612l350 623q21 38 9 56.5t-33 26.5t-84 8h-80q-31 0 -31.5 32t31.5 32h475q31 0 30.5 -32t-30.5 -32h-47q-42 0 -75.5 -14.5t-56 -34.5t-42.5 -56l-396 -710v-422 q0 -34 8 -53.5t23 -32.5t72 -13h61q42 0 38 -31t-38 -31h-484q-36 0 -40 31t37 31h64q39 0 56 13t25.5 28t8.5 48v429l-398 685q-4 6 -41.5 53t-59.5 63.5t-67 16.5h-38q-33 0 -33 32z" />
<glyph unicode="Z" horiz-adv-x="1286" d="M59 -42q-3 4 -3 10q0 18 23 53l891 1344l-330 1q-80 0 -149.5 -25t-112.5 -58t-85 -82t-68 -100l-32 -61q-17 -31 -39 -25t-17 28l80 381h951q15 0 20.5 -17t-17.5 -52l-901 -1359h348q103 0 175 16t138 64t108.5 99.5t81.5 118.5l33 58q13 23 33.5 17.5t13.5 -34.5 l-94 -394h-1003q-35 0 -45 17z" />
<glyph unicode="[" horiz-adv-x="559" d="M87 -310v1842h394v-91h-247v-1660h247v-91h-394z" />
<glyph unicode="\" horiz-adv-x="1306" d="M101 1375.5q-2 8.5 6 17.5t26.5 6.5t27.5 -14.5l1018 -1490q17 -27 16.5 -41.5t-9.5 -24.5t-29.5 0.5t-34.5 31.5l-1003 1483q-16 23 -18 31.5z" />
<glyph unicode="]" horiz-adv-x="561" d="M71 -209h246v1649h-246v90h403v-1838h-403v99z" />
<glyph unicode="^" horiz-adv-x="661" d="M48 1069q157 250 211 337l64 104l285 -441l-26 -2l-253 215l-246 -207z" />
<glyph unicode="_" horiz-adv-x="1024" d="M4 -89h1005v-86h-1005v86z" />
<glyph unicode="`" horiz-adv-x="1024" d="M444 1431q-2 34 1 50q4 20 15.5 31t25.5 14t27 3q31 -1 43.5 -13.5t16.5 -28.5t4 -43q-1 -33 -3 -71l-8 -117q-2 -26 -7 -116.5t-11.5 -200t-9.5 -159.5l-3 -44q-1 -14 -7.5 -24t-16.5 -8q-8 0 -11.5 6t-3.5 17l-4 36l-7 91l-15 190l-8 135l-10 133z" />
<glyph unicode="a" horiz-adv-x="1023" d="M82 182q12 96 80 165.5t152 110.5t153.5 56.5t186.5 31.5l44 6q-4 93 -4.5 155t-16 101t-59 67t-120.5 31h-7q-61 0 -108 -16q-49 -16 -63.5 -36.5t-17.5 -62.5l-3 -68q-1 -16 -11 -49q-9 -30 -73 -30h-12q-33 1 -53 22q-21 22 -22 70q0 47 36 97q37 53 97 84t127 46 t134 15q82 -1 150.5 -25.5t111 -73.5t48 -111.5t6.5 -157.5l1 -492q0 -68 13 -79.5t31 -6.5l28 17q25 11 40 -6.5t-4 -48.5q-13 -21 -57.5 -43.5t-92.5 -24.5h-4q-45 0 -72 39q-16 21 -17 53l-6 71q-24 -22 -55 -48t-83 -55q-52 -30 -130 -52q-39 -11 -83 -11q-43 0 -90 11 q-85 18 -137 77q-41 47 -41 126q0 21 3 45zM291 52q48 -45 125 -45q1 1 2 1q78 0 153 54.5t93 77.5l34 42v312q-46 -6 -105.5 -16t-157.5 -58t-146 -119q-48 -70 -48 -136q0 -68 50 -113z" />
<glyph unicode="b" horiz-adv-x="1160" d="M7 1302q4 29 39 32l47 3q48 3 114 19t88 31l64 39v-608q25 25 71 66q48 40 148 70q55 16 110 17q46 0 92 -12q79 -21 164 -88t129 -178q40 -102 40 -239v-25q-4 -123 -40 -215t-92 -146.5t-83 -75t-63 -35.5t-58.5 -23t-66.5 -12q-36 -4 -58 -4h-10q-56 0 -113 16.5 t-81 36.5l-103 73q-26 -39 -45.5 -64t-42 -47.5t-32.5 -20.5t-10 20v1231q0 41 -18 63.5t-46 34.5t-69 12h-41q-38 0 -34 29zM363 248q0 -75 28 -136q28 -60 100 -104q54 -33 124 -33q23 0 47 3q80 11 144.5 65t102.5 162q37 105 37 232v7q-2 117 -33 213.5t-95.5 168.5 t-152.5 80q-7 1 -14 1q-63 0 -129 -39q-74 -43 -115 -108l-44 -66v-446z" />
<glyph unicode="c" horiz-adv-x="906" d="M38 458q4 113 38.5 203t103.5 171q70 82 166 118q83 31 171 31q14 0 29 -1q122 -8 198 -64t86 -115q3 -17 3 -32q0 -35 -18 -55q-25 -28 -61 -30q-2 0 -4 -1q-33 1 -56 21q-25 22 -26 57l3 42q0 40 -35 79t-124 39q-78 -1 -144 -42.5t-122 -157.5q-52 -108 -51 -253v-21 q3 -150 54.5 -239t120 -132.5t148.5 -43.5h7q97 0 167 52q72 54 109 116l30 50q15 26 37 15.5t4 -45.5l-19 -36q-33 -62 -81 -121t-124.5 -94t-154.5 -36h-9q-100 0 -184 44q-88 46 -144 106q-55 61 -89 151q-30 79 -30 190q0 17 1 34z" />
<glyph unicode="d" horiz-adv-x="1142" d="M61 436q2 100 32 193.5t92.5 175t147.5 122.5q83 40 187 40h5q80 -2 151 -29.5t103 -62.5l35 -37v351q0 50 -9 67t-32.5 26.5t-62.5 9.5l-48 -1q-41 -1 -34.5 25.5t38.5 28.5l58 3q35 1 66 7.5t72.5 21.5t57.5 26l36 23v-1289q0 -55 9.5 -73.5t30.5 -32t62 -13.5h31 q36 0 35.5 -28.5t-32.5 -28.5h-278v70q-18 -22 -35 -37t-76.5 -43t-166.5 -28h-6q-87 0 -170 28q-86 29 -162 99q-75 72 -107 176q-30 98 -30 198v12zM220 450q-1 -18 -1 -36q0 -120 38 -213q40 -99 115.5 -158t167.5 -64h14q84 0 161 53q42 29 71 66l29 36v603 q-21 28 -48 61.5t-95 73.5q-65 38 -134 37h-7q-72 -3 -142 -54t-116.5 -157t-52.5 -248z" />
<glyph unicode="e" horiz-adv-x="904" d="M37 533q19 150 86 244.5t146 139t190 50.5q11 1 22 0q74 0 134 -23q68 -27 127 -97t88 -153t33 -149l3 -45h-666q-8 -60 -10 -96q0 -6 -1 -11q0 -33 7 -76q10 -71 36 -123t81.5 -98t121.5 -60q34 -8 67 -8q47 0 91 16q76 27 114.5 59t70.5 72l30 38q18 23 36.5 14 t1.5 -39l-22 -38q-19 -33 -61.5 -85t-111 -92t-159.5 -46q-15 -1 -29 -1q-85 0 -161 34q-88 40 -156 126q-68 88 -96 208q-18 78 -18 156q0 41 5 83zM199 553h504q-3 53 -7.5 102t-28.5 105.5t-82 98.5q-54 39 -119 39h-9q-65 -4 -117 -46t-88.5 -112t-44.5 -135z" />
<glyph unicode="f" horiz-adv-x="791" d="M56 936.5q0 26.5 24 26.5h191q0 76 4.5 138.5t37.5 141.5t93.5 118t143.5 44q10 1 19 1q46 0 77 -13q36 -15 60.5 -43t26 -60t-19.5 -55.5t-54 -26t-59 17.5q-20 14 -23.5 25.5t-5.5 39t-18 39.5t-38 9q-19 -4 -43 -24.5t-40 -67t-16 -139.5v-145h242q26 0 24.5 -26.5 t-24.5 -26.5l-242 -1v-813q0 -66 5 -75t25 -19.5t88 -10.5h74q23 0 24.5 -26t-24.5 -26h-500q-33 0 -33.5 26t33.5 26h64q41 0 61.5 10t28.5 24.5t8 77.5v807h-187q-27 0 -27 26.5z" />
<glyph unicode="g" horiz-adv-x="1166" d="M32 -188q0 49 25 88q30 46 92.5 75.5t102.5 43.5l53 18q-42 12 -72 22.5t-51 33.5q-17 18 -17 50q0 10 1 21q7 48 61 84l62 44q-37 18 -76 44t-79 104q-35 67 -35 147q0 14 1 28q7 100 65.5 181.5t146.5 124.5q86 42 195 42h5q81 -1 145.5 -25t89.5 -46l42 -36 q30 27 56 49t59 35q26 11 58 11q11 0 22 -1q47 -5 80 -36q30 -29 30 -64v-9q-3 -26 -22 -45.5t-48 -24t-56 23.5l-30 39q-18 17 -37 20q-27 2 -49 -17l-25 -20q15 -22 40 -64t25 -135q1 -2 1 -3q0 -92 -37 -167q-36 -76 -91 -118t-139 -59q-72 -14 -139 -14h-23l-71 2 q-31 -10 -69 -21t-44.5 -32.5t2.5 -35.5q9 -16 63 -24t161 -27t202 -38.5t170.5 -52t106 -75.5t30.5 -88q-2 -66 -58 -117t-137 -78.5t-170.5 -39t-207.5 -11.5h-13q-119 0 -208 18q-94 19 -141 69q-48 52 -48 106zM194 -180q5 -67 64 -103.5t172 -39.5q91 1 179 4.5 t168 53.5q75 47 75 104v7q-5 47 -63 83t-177.5 61.5t-136.5 28.5l-62 9q-35 -13 -83.5 -33t-94.5 -69q-41 -45 -41 -95v-11zM324 385q67 -72 170 -73h1q101 0 169 70q67 71 67 225q-1 50 -14.5 119t-70 125.5t-148.5 56.5q-78 -1 -138.5 -51t-81.5 -136q-21 -82 -21 -119 q0 -145 67 -217z" />
<glyph unicode="h" horiz-adv-x="1257" d="M25 1305q-1 29 33 29h27q33 0 73 7.5t73.5 19t62.5 26.5l57 28v-627q38 36 88 79t117.5 68t142.5 28h11q78 0 144 -26q70 -28 123 -98t53 -203v-527q0 -53 11.5 -75t31.5 -33.5t88 -11.5h44q28 0 30 -27.5t-30 -27.5h-448q-29 0 -31 27.5t31 27.5h44q40 0 60 16.5 t25.5 34.5t5.5 69v500q0 114 -27.5 172t-85.5 93q-48 29 -115 29q-13 0 -27 -1q-73 -7 -146 -49.5t-99 -82.5l-42 -58v-614q0 -51 30 -80t90 -29h44q27 0 26.5 -27.5t-26.5 -27.5h-420q-27 0 -33.5 27.5t33.5 27.5h36q35 0 56.5 14.5t21.5 100.5v1098q0 43 -10.5 54.5 t-31 15.5t-75.5 4h-33q-32 0 -33 29z" />
<glyph unicode="i" horiz-adv-x="612" d="M35.5 -27.5q1.5 29.5 36.5 29.5h41q58 0 82 14.5t30 28t6 65.5v633q0 37 -9.5 53t-33 26t-69.5 12l-35 1q-27 0 -29 24.5t25 27.5l39 3q38 2 67 8t66 20.5t67 31.5l60 33v-878q0 -63 2 -70t15.5 -20t81.5 -13h81q38 0 37.5 -28.5t-32.5 -28.5l-494 -1q-36 -1 -34.5 28.5z M197 1389q31 33 81 33q1 0 1 -1q49 -1 83 -33q36 -34 36 -86q0 -1 1 -1q0 -52 -38.5 -82t-86.5 -30l-2 1q-48 0 -78 36q-29 35 -28 79q0 52 31 84z" />
<glyph unicode="j" horiz-adv-x="559" d="M-94 -245q-1 8 -1 15q0 42 23 64q21 17 48 17q11 0 22 -2q31 -8 45.5 -27.5t29 -64t41.5 -57.5q9 -5 19 -5q21 0 48 19q40 28 45 112l-1 122l1 734q0 89 -7 106t-32.5 27.5t-63.5 13.5l-42 3q-30 2 -26.5 24.5t26.5 25.5l53 6q37 4 76.5 13t56 16t47.5 26l51 30l1 -971 q0 -66 -9 -138.5t-39 -141.5t-98 -95q-44 -17 -92 -17q-23 0 -47 4q-69 11 -120 49t-55 92zM138.5 1288q-0.5 31 15.5 57q15 26 44.5 40.5t55.5 15.5q26 0 55.5 -15t45 -41t15.5 -57q-1 -31 -16 -56.5t-42.5 -41t-57.5 -14.5q-31 0 -58 15t-42 40.5t-15.5 56.5z" />
<glyph unicode="k" horiz-adv-x="1215" d="M44.5 -32.5q-2.5 27.5 33.5 27.5h49q27 0 51.5 13t30 24.5t5.5 60.5v1065q0 55 -19.5 78.5t-69.5 23.5h-47q-33 0 -31.5 25t31.5 27l49 3q29 1 54.5 9t68 27.5t65.5 33.5l52 30v-975l366 389q20 21 16.5 42t-13 29.5t-33.5 8.5h-70q-33 0 -30.5 25t30.5 25h423 q28 0 30.5 -25t-27.5 -25h-69q-38 0 -66.5 -13t-57 -29.5t-48.5 -37.5l-217 -234l324 -449q2 -3 47 -61t69 -74t68 -16h58q30 0 33.5 -27.5t-33.5 -27.5h-448q-29 0 -28.5 27.5t28.5 27.5h36q50 0 55.5 10.5t1.5 29t-26 50.5l-290 405l-129 -131v-274q0 -47 1 -57.5 t12.5 -21.5t56.5 -11h47q31 0 32.5 -29.5t-32.5 -28.5l-406 3q-31 0 -33.5 27.5z" />
<glyph unicode="l" horiz-adv-x="600" d="M18.5 -27q-2.5 27 34.5 27h76q41 0 59.5 17t24 36.5t5.5 61.5v1064q0 65 -5.5 81.5t-20 28.5t-52.5 15l-55 3q-30 1 -30.5 25t33.5 27l52 4q32 2 70 10t70 19.5t45 19.5l48 27v-1320q0 -62 8.5 -79t24.5 -28.5t85 -11.5h67q27 0 24.5 -27t-24.5 -27h-506q-31 0 -33.5 27z " />
<glyph unicode="m" horiz-adv-x="1701" d="M38.5 868q-4.5 24 29.5 26l46 2q38 1 69 8t63 23t56 32l42 28v-186q17 26 46 66t85.5 72.5t119.5 42.5q26 4 51 4q34 0 65 -8q53 -14 104 -56t70 -84l25 -53q28 52 49.5 79t55.5 52.5t88 49.5t125 25q88 0 155.5 -46t97 -120t29.5 -153v-580q0 -32 6 -48t22.5 -28.5 t68.5 -12.5h36q30 0 29.5 -28.5t-29.5 -28.5h-384q-31 0 -35 28.5t37 28.5h34q36 0 50.5 14.5t16.5 22.5t2 65v557q0 99 -10 139.5t-52 80.5t-120 40q-90 -1 -165 -66.5t-86.5 -103.5t-11.5 -70v-570q0 -50 23 -79.5t73 -29.5h39q28 0 27.5 -28.5t-27.5 -28.5h-404 q-27 0 -27.5 28.5t27.5 28.5h31q47 0 64 11.5t24.5 31.5t7.5 59v577q0 65 -13 115.5t-54.5 87t-106.5 37.5q-47 0 -107.5 -30t-100.5 -98t-40 -115v-611q0 -28 5.5 -37.5t24.5 -18.5t53 -9h44q31 0 32.5 -28.5t-32.5 -28.5h-395q-27 0 -25.5 28.5t27.5 28.5h33q37 0 60 12.5 t29 29.5l-1 47v614q0 60 -8 82.5t-26 36.5t-62 16l-46 2q-25 1 -29.5 25z" />
<glyph unicode="n" horiz-adv-x="1172" d="M19 864q0 25 38 30l58 7q28 3 78.5 17.5t85.5 40.5l35 24v-235q30 56 64 103t118 93q73 40 169 41q14 0 29 -1q127 -9 190 -70t85 -132t22 -147v-542q0 -41 3 -52.5t18 -26t65 -14.5h47q33 0 30.5 -27.5t-30.5 -27.5h-395q-34 0 -36.5 27.5t36.5 27.5h49q29 0 44 13.5 t19 23t4 62.5v553q0 56 -10.5 113t-55 105t-135.5 52h-9q-55 0 -107 -23q-56 -25 -120 -84.5t-72.5 -105t-8.5 -96.5v-511q0 -40 6.5 -59.5t18 -31t59.5 -11.5h44q31 0 30.5 -27.5t-30.5 -27.5h-384q-35 0 -33.5 27.5t33.5 27.5h41q35 0 45.5 11.5t17 33t6.5 55.5l-1 590 q-1 62 -4.5 87.5t-19 43.5t-49.5 18h-55q-33 0 -33 25z" />
<glyph unicode="o" horiz-adv-x="1061" d="M74 453v23q0 96 22 184q26 98 92 175t150.5 113.5t177.5 38.5h5q91 0 183 -37q94 -38 153.5 -114.5t89.5 -162.5t30 -220q-1 -83 -18 -168.5t-75 -171.5q-58 -87 -150 -137q-87 -48 -204 -47h-14q-100 2 -185 42.5t-144 117.5t-85 170t-28 194zM240 455 q2 -135 33.5 -240.5t96 -156t150.5 -54.5h11q79 0 143 47q76 57 106 173q30 118 31 243q0 120 -29 217q-37 120 -107 176t-159 56q-87 -1 -156 -57.5t-96 -166.5q-24 -99 -24 -212v-25z" />
<glyph unicode="p" horiz-adv-x="1141" d="M23.5 -316q-2.5 29 30.5 29h52q46 0 70 13t30 25t6 82v867q0 51 -6.5 79t-21 47t-78.5 19h-42q-28 0 -27.5 27t31.5 29l41 2q30 1 61.5 10t68.5 26t69 39l33 22v-182q22 34 54 72t109 71.5t150 36.5h10q117 0 222 -70q109 -73 162 -198q51 -117 51 -261v-16 q-4 -166 -74.5 -291.5t-196.5 -179.5q-104 -44 -197 -44q-21 0 -41 2q-118 12 -162 58l-71 64v-242q0 -41 4 -58.5t19 -33t89 -15.5h74q31 0 28 -29t-28 -29h-489q-28 0 -30.5 29zM358 188q0 -40 67.5 -110t170.5 -74h14q94 0 163 51q65 48 108.5 152t46.5 243q1 12 1 24 q0 125 -34 236q-32 103 -94 163t-162 63h-4q-82 0 -144 -43q-63 -44 -98 -104.5t-35 -109.5v-491z" />
<glyph unicode="q" horiz-adv-x="1143" d="M52 425q0 130 37.5 230t117.5 181t165 107.5t155 26.5q91 -1 166 -35t108 -76l22 -27l57 106q13 25 40 26t27 -33v-1113q0 -50 7.5 -68.5t24 -32t56.5 -11.5l50 2q37 1 35.5 -28.5t-35.5 -29.5h-403q-30 0 -31.5 29t31.5 29h47q39 0 53 9.5t19 24.5l-4 64v263 q-22 -44 -45 -69t-105 -50.5t-154 -26.5h-13q-109 0 -201 48q-97 51 -162 157.5t-65 296.5zM221 425q0 -135 41.5 -236.5t106 -149.5t151.5 -51q4 -1 9 -1q81 0 162 60q60 46 84 101.5t24 108.5v367q0 62 -12.5 106t-76.5 112q-61 66 -174 66h-7q-84 -2 -154.5 -57 t-112.5 -173q-41 -116 -41 -247v-6z" />
<glyph unicode="r" horiz-adv-x="873" d="M71 -37q0 26 36 26h38q39 0 64.5 12t34 27t8.5 71v560q0 121 -21 145.5t-80 24.5h-39q-40 0 -37 27t43 31l33 3q21 1 64.5 6.5t78 17.5t58.5 30l42 29v-263q37 64 77 122.5t105 95.5q59 33 125 33h14q69 -5 103 -39q36 -36 37 -76q0 -36 -24 -62q-21 -23 -54 -23 q-6 0 -12 1q-38 4 -59 36l-22 36q-16 18 -40 22q-4 1 -9 1q-25 0 -57 -17q-38 -20 -82.5 -68t-73 -107t-28.5 -114v-462q0 -41 5.5 -58t20 -29.5t68.5 -12.5h80q32 0 32.5 -26t-32.5 -26h-461q-36 0 -36 26z" />
<glyph unicode="s" horiz-adv-x="797" d="M33 252q-12 34 6.5 49.5t40.5 -21.5l38 -66q40 -70 87 -119t143 -84q48 -18 95 -18q45 0 89 17q88 34 104 106q6 27 7 52q0 42 -18 79q-23 45 -63 73t-144.5 60t-171.5 53.5t-116.5 56.5t-84.5 116q-19 43 -19 89q0 41 15 83q31 89 119.5 141t195.5 55h7q70 0 129 -19 l57 -20q23 -7 34 -2q7 3 19 25.5t26 24.5t24 -20l105 -268q14 -38 -9 -54t-41 18l-33 61q-28 50 -66 92t-108 80q-55 29 -109 29q-16 0 -32 -2q-63 -11 -113 -63q-51 -52 -56 -114q-1 -7 -1 -12q0 -55 39 -100q30 -37 105 -66l199 -65q132 -45 198 -115q66 -71 66 -173 q0 -101 -70 -177q-70 -78 -193 -96q-43 -7 -79 -7q-37 -1 -65 7q-56 14 -98.5 27.5t-58.5 3.5q-10 -6 -23.5 -33t-30 -29t-25.5 25z" />
<glyph unicode="t" horiz-adv-x="721" d="M25.5 940q-3.5 27 30.5 27h27q38 0 68 13.5t65 52t52.5 85.5t21.5 112l4 74q1 23 37 29.5t36 -32.5v-334h264q31 0 29.5 -27t-26.5 -27h-263v-690q0 -130 8 -151t31.5 -38.5t59.5 -18.5h7q34 0 76 18q46 20 83 58l34 35q15 16 31 1t4 -34l-21 -33q-31 -48 -86 -85 q-54 -37 -148 -51q-32 -5 -58 -4q-49 0 -75 17q-34 21 -59.5 83t-25.5 145v748h-170q-33 0 -36.5 27z" />
<glyph unicode="u" horiz-adv-x="1142" d="M23.5 864q1.5 27 27.5 29l30 2q21 1 79.5 11t102.5 37l47 27v-727q0 -79 8 -119q10 -40 62 -80q51 -39 123 -39h4q72 0 151 43t121 103t42 114v481q0 32 -6 48.5t-26.5 29.5t-51.5 13h-34q-33 0 -30.5 27t33.5 29l42 2q24 1 85.5 16.5t95.5 41.5l32 23v-850 q0 -76 4.5 -85t17 -23.5t41.5 -17.5l50 -5q36 -5 39 -32t-42 -26l-251 1v171q-26 -32 -57.5 -66.5t-97.5 -72t-172 -41.5q-14 -1 -27 -1q-92 0 -160 36q-78 42 -107 107t-28 139l1 525q0 31 -9.5 53t-26.5 35.5t-52 13.5h-33q-29 0 -27.5 27z" />
<glyph unicode="v" horiz-adv-x="1134" d="M33 918.5q0 24.5 33 24.5h395q28 0 31 -24.5t-28 -24.5l-45 -1q-44 -1 -58 -18t-14.5 -38.5t13.5 -55.5l243 -628l216 570q31 84 31 107q0 20 -22 44q-18 20 -71 20h-56q-23 0 -30 24.5t30 24.5h384q27 0 31.5 -24.5t-31.5 -24.5h-38q-45 0 -68 -17t-45.5 -48.5 t-34.5 -66.5l-281 -788q-16 -44 -46 -44h-3q-32 2 -44 35l-314 795q-16 39 -28.5 62.5t-34 47.5t-44.5 24h-35q-36 0 -36 24.5z" />
<glyph unicode="w" horiz-adv-x="1723" d="M20 921q-1 25 24 25h473q28 0 28 -25t-28 -25h-86q-49 0 -60 -14.5t-13 -33.5t15 -60l256 -655l205 603l-32 81q-9 20 -23 38.5t-31.5 29.5t-53.5 11h-47q-28 0 -28 25t28 25h462q33 0 33 -25t-33 -25h-61q-65 0 -78.5 -13.5t-14 -24t14.5 -57.5l196 -665l269 685 q10 26 -1 43.5t-28 24.5t-65 7h-61q-32 0 -33.5 25t30.5 25h398q28 0 34.5 -25t-34.5 -25h-41q-50 0 -71 -11t-37.5 -28.5t-27.5 -47.5l-326 -843q-15 -39 -50 -39v1q-36 0 -47 37l-216 657l-229 -659q-12 -34 -46.5 -35.5t-45.5 27.5l-307 795q-25 63 -34.5 80.5 t-41.5 41.5t-72 24h-41q-21 0 -22 25z" />
<glyph unicode="x" horiz-adv-x="1231" d="M25 929.5q-1 26.5 30 26.5h461q26 0 27.5 -26.5t-27.5 -26.5h-44q-31 0 -45 -16.5t-13 -28.5t24 -40l192 -246l177 246q21 29 16.5 47t-20 28t-46.5 10h-39q-27 0 -25.5 26.5t25.5 26.5h404q26 0 27.5 -26.5t-27.5 -26.5h-64q-55 0 -91 -17.5t-56.5 -36.5t-44.5 -52 l-202 -280l297 -401q27 -38 42.5 -55t50 -41.5t73.5 -24.5h64q27 0 27.5 -26t-27.5 -26h-448q-28 0 -28.5 26t28.5 26h39q22 0 33.5 13.5t10.5 23.5t-30 50l-223 300l-215 -291q-23 -31 -21 -52.5t12.5 -32.5t61.5 -11h78q32 0 32.5 -26t-32.5 -26h-415q-33 0 -33.5 26 t36.5 26h53q30 0 61.5 15.5t55.5 40t62 76.5l227 309l-271 365q-23 29 -45.5 51.5t-50 36.5t-59.5 14h-55q-29 0 -30 26.5z" />
<glyph unicode="y" horiz-adv-x="1208" d="M28.5 924.5q2.5 27.5 36.5 27.5h483q33 0 36 -27.5t-36 -27.5h-83q-50 0 -62 -12.5t-13.5 -35.5t13.5 -61l230 -615l249 622q13 34 13.5 52.5t-16 34t-49.5 15.5h-80q-29 0 -28.5 27.5t28.5 27.5h406q33 0 31 -27.5t-31 -27.5h-50q-33 0 -63.5 -14.5t-46.5 -34.5t-39 -74 l-373 -887q-36 -84 -70.5 -139.5t-81 -83t-96.5 -35.5q-23 -4 -45 -4q-27 0 -51 7q-43 11 -66 40q-22 26 -22 55v5q2 33 21.5 53.5t58.5 20.5q34 -1 70 -25l43 -32q25 -17 51 -17l1 -1q26 0 63 45q38 46 58 113l17 55l-287 827q-11 30 -37 66t-42 48t-55 12h-49 q-39 0 -36.5 27.5z" />
<glyph unicode="z" horiz-adv-x="951" d="M47 -44.5q-11 18.5 11 48.5l645 891l-212 -1q-97 -1 -148 -24.5t-97 -63.5t-73 -88l-36 -64q-22 -39 -41 -31t-14 34l51 293h728q19 0 28 -17t-17 -54l-641 -887l216 1q70 0 126 13.5t101 41.5t73 63t51 90l21 51q8 19 32 17t21 -26l-44 -306h-749q-21 0 -32 18.5z" />
<glyph unicode="{" horiz-adv-x="904" d="M243 594v43q34 12 66.5 26t63.5 40t48.5 62.5t21 88.5t-4.5 119q-6 39 -19.5 112t-16.5 113.5t3 82.5q6 47 24 89.5t54.5 83t82 68t88.5 34.5l83 16v-29q-64 -14 -95 -28t-61 -39.5t-47.5 -59.5t-23.5 -88t4 -133l16 -108q11 -79 9 -137q-2 -41 -11 -81t-33.5 -84 t-56 -73.5t-69.5 -49.5l-86 -47q82 -33 120.5 -60t63 -60.5t41 -72.5t21 -73t5 -86.5t-1.5 -83.5l-10 -100l-8 -81q-9 -82 -5 -113q4 -36 20 -68.5t37 -53.5t46 -37.5t38 -29.5t9 -22t-23 -10q-19 -2 -62.5 24t-57 36.5t-40 42t-41 56.5t-24 64t-8.5 93q0 51 12 134l24 158 q8 59 8 98q-1 67 -24.5 110.5t-41.5 49.5z" />
<glyph unicode="|" horiz-adv-x="1024" d="M384 -403v2036h165v-2036h-165z" />
<glyph unicode="}" horiz-adv-x="904" d="M186 1540v26q51 -11 89.5 -22.5t74.5 -35t65 -59t44 -72.5t23 -79.5t10 -93t-11 -113.5l-24 -105q-10 -52 -9 -109q0 -63 13 -103.5t29 -58.5t47.5 -40.5t42.5 -23.5l53 -10v-50q-54 -13 -81 -27t-49.5 -40.5t-38 -68.5t-17 -94t7.5 -123q5 -49 11 -82l16 -95 q6 -49 3 -93q-4 -50 -16.5 -90.5t-31.5 -70.5t-48.5 -58t-57.5 -45l-47 -28q-20 -14 -31 -12t-13 10.5t12 21.5q5 4 29 20.5t46 42.5t37.5 61t19.5 62.5t4 61.5q-1 30 -6.5 94t-10.5 129.5t-2 116.5q3 67 17 109t44.5 92.5t53.5 62.5l105 64q-47 25 -75.5 42t-47.5 35.5 t-46 64.5t-40.5 90t-17 97t1.5 103q2 27 13.5 107.5t13 128t-8.5 82.5q-8 26 -31.5 64.5t-56.5 63.5t-60 34z" />
<glyph unicode="~" horiz-adv-x="825" d="M68.5 1122.5q-9.5 12.5 7.5 44t26 45.5q11 17 30.5 43t41 50.5t37 38.5t37 24t40.5 10q19 -1 37 -10.5t78 -46.5t100.5 -54t68.5 -15q39 2 74 30t60 55t34 35t15 8.5t12.5 -5.5t0.5 -29q-5 -16 -15 -34.5t-27.5 -42.5t-43.5 -56t-61 -64.5t-68 -35.5q-20 -3 -41.5 4.5 t-82.5 46t-94 56.5t-61 19q-26 0 -49 -10.5t-40 -23t-41 -35t-36 -39.5t-21 -19t-18.5 10.5z" />
<glyph unicode="&#xa4;" d="M497 112l195 200q-23 23 -48 53t-48 99t-23.5 145t24 150t65.5 128l23 31l-188 187l52 61l201 -185q23 17 54 36.5t93.5 37t138.5 17t144.5 -21t111.5 -53.5l25 -19l191 188l66 -61l-194 -191q19 -23 45 -58.5t47.5 -109.5t18 -145.5t-28 -140t-59.5 -107.5l-31 -36 l200 -193l-63 -64l-203 202q-26 -18 -59.5 -37.5t-94.5 -37t-118.5 -17t-120.5 16.5t-105 42l-47 27l-207 -198zM705.5 606q3.5 -139 100 -223t226.5 -82q142 1 230.5 88.5t92 217t-84.5 235t-233 106t-240 -101t-91.5 -240.5z" />
<glyph unicode="&#xa7;" d="M602.5 619q-1.5 55 8.5 100q17 72 59 129.5t92 94.5l36 27q-35 27 -63 51.5t-70 82t-46.5 148t73.5 170.5q45 46 121 73t183 25q140 -4 231 -57t120 -120.5t31 -122.5l3 -71h-182q-2 26 -5.5 63t-26 70.5t-66 51t-83.5 21.5q-59 5 -113 -9.5t-76 -40.5t-25 -64t62 -102 q57 -58 131.5 -111t181.5 -118.5t152 -105.5t77.5 -91t38.5 -125.5t-55 -161.5q-54 -77 -112 -104l-90 -47q43 -31 92.5 -72.5t78 -106.5t28.5 -119q-2 -107 -69 -176t-152.5 -94.5t-175.5 -24.5q-71 0 -142.5 18.5t-123 66.5t-75 106t-29.5 145l-7 84h187q2 -41 6 -89 t32 -89.5t76 -56.5t106 -13q67 1 122 30t59 83t-34 105q-42 55 -163 121t-187.5 108.5t-110.5 85.5t-74 110t-31.5 122zM781.5 650.5q2.5 -54.5 16.5 -87.5t56 -72t101 -72l63 -37q42 16 94.5 37t101.5 62.5t50 86t-21 79.5q-25 37 -126 97l-117 73l-74 44 q-26 -18 -51 -37.5t-60.5 -69t-33 -104z" />
<glyph unicode="&#xa8;" d="M402 1096.5q0 66.5 45 108t101 45.5q33 2 75.5 -17.5t65.5 -54t23.5 -92.5t-44 -103t-110.5 -44q-66 0 -111 45.5t-45 112zM1316 1093q0 67 45.5 108.5t101.5 45.5q33 2 75 -17.5t66 -55.5t24.5 -92t-44.5 -101.5t-110.5 -45t-112 46t-45.5 111.5z" />
<glyph unicode="&#xad;" horiz-adv-x="1409" d="M85 528v172h1231v-172h-1231z" />
<glyph unicode="&#xb0;" d="M220 1160.5q0 122.5 87 196t184 73.5q102 -1 185 -77t83.5 -194.5t-78.5 -196t-194 -75.5q-110 1 -188.5 76t-78.5 197.5zM333 1146q4 -68 53 -108t103 -40q65 -1 110.5 43t46 113.5t-44 114t-111.5 43t-114.5 -49t-42.5 -116.5z" />
<glyph unicode="&#xb1;" d="M409 65h1231v-171h-1231v171zM410 743v172h523v481h173v-481h533v-172h-533v-478h-173v478h-523z" />
<glyph unicode="&#xb7;" d="M815.5 680.5q10.5 145.5 152 153t207 -59t66 -156t-64 -149t-149.5 -59.5q-100 -1 -161 62t-50.5 208.5z" />
<glyph unicode="&#xd7;" d="M407 122l491 496l-491 491l121 123l493 -493l487 488l126 -115l-492 -495l492 -495l-121 -122l-492 496l-495 -497z" />
<glyph unicode="&#xe0;" d="M629 491q1 80 17.5 141.5t44.5 112t80 97t113.5 65.5t135.5 15q84 -6 115 -30l43 -31v61h173l-1 -885h-173l1 85q-20 -21 -52.5 -49t-129.5 -33q-108 -7 -178.5 34t-113.5 104t-59.5 147t-15.5 166zM796.5 462q-0.5 -62 14.5 -113q13 -48 37 -79t59 -47.5t76 -15.5 q45 0 77 17.5t60 53t39 81.5l17 67v206q-11 20 -25 43t-51.5 47t-89.5 28q-45 2 -89.5 -15t-73 -57.5t-39.5 -97t-11.5 -118.5zM848 1297l140 113l182 -328l-50 -41z" />
<glyph unicode="&#xe1;" d="M643 491q1 80 17.5 141.5t44.5 112t80 97t113.5 65.5t135.5 15q84 -6 115 -30l43 -31v61h173l-1 -885h-173l1 85q-20 -21 -52.5 -49t-129.5 -33q-108 -7 -178.5 34t-113.5 104t-59.5 147t-15.5 166zM810.5 462q-0.5 -62 14.5 -113q13 -48 37 -79t59 -47.5t76 -15.5 q45 0 77 17.5t60 53t39 81.5l17 67v206q-11 20 -25 43t-51.5 47t-89.5 28q-45 2 -89.5 -15t-73 -57.5t-39.5 -97t-11.5 -118.5zM865 1161l259 270l54 -36l-165 -335z" />
<glyph unicode="&#xe8;" d="M613 440.5q-2 89.5 12 160.5q17 86 67.5 166t131 120t184.5 43q103 2 177 -31t120.5 -88.5t64.5 -125.5t15 -132l-4 -130l-595 1q-3 -20 -5 -56t30 -81q35 -53 99.5 -72.5t116.5 -19.5q74 -2 119.5 27.5t49.5 61.5l10 53h172q-10 -71 -24 -115.5t-41.5 -79.5t-58.5 -55.5 t-105 -40t-169 -12.5q-116 8 -187.5 50t-109 93.5t-53 112.5t-17.5 150.5zM797 586h411q-2 26 -5 49.5t-16 49t-52 53t-104 29t-112 -18t-80 -61.5t-38 -77zM850 1294l141 113l182 -328l-49 -41z" />
<glyph unicode="&#xe9;" d="M601 437.5q-2 88.5 12 159.5q17 85 67.5 165.5t131.5 122t184 43.5q101 1 176.5 -32t121.5 -88.5t64 -126.5t15 -130l-4 -131l-595 1q-3 -20 -4.5 -56t29.5 -81q35 -53 99 -73t117 -20q74 -2 119.5 27.5t49.5 61.5l10 54h172q-10 -71 -24 -115.5t-42 -80t-58 -56 t-105.5 -40t-168.5 -12.5q-115 8 -187.5 50.5t-109.5 93.5t-52.5 113t-17.5 150.5zM785 582l411 1q-2 25 -5 49t-16 49.5t-52.5 53t-104 28.5t-111.5 -18.5t-80.5 -61.5t-37.5 -75zM865 1159l260 271l54 -37l-165 -335z" />
<glyph unicode="&#xea;" d="M617 443.5q-2 88.5 12 160.5q17 87 67.5 167t131.5 120.5t184 42.5q102 1 176.5 -32t121 -88.5t64.5 -125t15 -131.5l-4 -131l-595 2q-3 -20 -4.5 -56.5t29.5 -81.5q35 -52 99.5 -72t116.5 -20q73 -2 119 28t50 61l10 53l172 1q-10 -71 -24 -116t-41.5 -80t-58.5 -55.5 t-105 -40t-169 -12.5q-117 7 -188 49.5t-108.5 95t-53 113t-17.5 149zM707 1125l318 270l303 -273l-47 -64l-256 152l-267 -152zM801 589l411 1q-2 25 -5 49t-16 49.5t-52 52.5t-104 28t-112 -18.5t-80.5 -61.5t-37.5 -75z" />
<glyph unicode="&#xec;" d="M861 1297l140 113l182 -328l-50 -41zM933 40l1 882h182l1 -882h-184z" />
<glyph unicode="&#xed;" d="M892 1152l260 270l54 -35l-166 -336zM924 40l1 882h182v-882h-183z" />
<glyph unicode="&#xf2;" d="M623 485q1 74 10 117q19 95 66.5 167.5t130 116.5t191.5 47q101 1 187.5 -36t141 -107t70 -147t12.5 -176q-4 -105 -28.5 -187.5t-81.5 -135t-131 -81.5t-167 -28q-127 1 -206.5 50t-117 109t-58 138.5t-19.5 152.5zM793 494q-2 -70 10.5 -115.5t41 -85t78.5 -66.5 t118 -24q56 1 102.5 27t68.5 64.5t31.5 92t8.5 117.5q-2 59 -14 102.5t-40 76.5t-76 53t-98 21q-76 0 -122 -32.5t-71 -76t-31.5 -84.5t-6.5 -70zM859 1297l141 113l181 -328l-50 -41z" />
<glyph unicode="&#xf3;" d="M617 481.5q1 73.5 10 116.5q20 98 66.5 169t130 115.5t191.5 47.5q100 2 187 -35.5t141.5 -108t70 -147t12.5 -176.5q-5 -104 -29 -186.5t-80.5 -135t-131.5 -82t-167 -28.5q-126 0 -205.5 50.5t-117.5 110.5t-58.5 138t-19.5 151.5zM787 491q-2 -70 10.5 -115.5 t41 -85.5t78 -66t118.5 -23q58 1 103 26t67.5 64t32 91.5t8.5 117.5q-2 59 -13.5 102t-40 77t-76 54t-98.5 21q-77 0 -122 -32.5t-70.5 -76.5t-32 -85t-6.5 -69zM890 1149l260 270l53 -36l-164 -335z" />
<glyph unicode="&#xf7;" d="M407 528v172h1231v-172h-1231zM871.5 151q-0.5 68 43.5 107.5t105 39.5q67 -1 108.5 -43t41.5 -105q-1 -63 -43 -105t-104 -43.5t-106.5 40t-45 109.5zM871.5 1079.5q-0.5 67.5 44 107.5t104.5 40q66 -1 108 -43.5t42 -104.5q-1 -64 -42.5 -106t-104.5 -42.5t-107 40.5 t-44.5 108.5z" />
<glyph unicode="&#xf9;" d="M647 383v539h181l1 -525q0 -72 14.5 -102t55 -53t109.5 -21q53 0 104 17.5t65 44.5l13 23l1 616h181l-2 -884l-180 1v44q-18 -9 -34.5 -16.5t-57 -17.5t-114.5 -7q-92 3 -161 30t-109.5 77.5t-53.5 109.5t-13 124zM847 1297l141 113l181 -328l-50 -41z" />
<glyph unicode="&#xfa;" d="M648 383v539h181l1 -525q0 -72 14.5 -102t55 -53t109.5 -21q53 0 104 17.5t65 44.5l13 23l1 616h181l-2 -884l-180 1v44q-18 -9 -34.5 -16.5t-57 -17.5t-114.5 -7q-92 3 -161 30t-109.5 77.5t-53.5 109.5t-13 124zM895 1149l260 270l54 -36l-165 -335z" />
<glyph unicode="&#xfc;" d="M656 382v540h181l1 -527q0 -71 14.5 -101t55 -53t109.5 -21q52 0 104 17.5t65 43.5l13 24l1 617h181v-883l-182 -1v43q-18 -9 -37 -17t-55 -17.5t-114 -5.5q-95 4 -162.5 30t-108 77t-53.5 109t-13 125zM681.5 1185.5q-0.5 26.5 14.5 50.5q14 24 38.5 37t49.5 13 q24 -1 49 -14t38.5 -36t13.5 -50q-1 -28 -14 -51t-37 -36.5t-50 -13.5q-28 -1 -51.5 13t-37 37.5t-14 50zM1154.5 1185.5q-0.5 27.5 13.5 50.5q13 23 38 36.5t51 13.5q24 -1 49 -14t38.5 -36t13.5 -50q-1 -28 -14 -51t-36.5 -36.5t-50.5 -13.5q-28 -1 -52 13t-37 37 t-13.5 50.5z" />
<glyph unicode="&#x2000;" horiz-adv-x="816" />
<glyph unicode="&#x2001;" horiz-adv-x="1633" />
<glyph unicode="&#x2002;" horiz-adv-x="816" />
<glyph unicode="&#x2003;" horiz-adv-x="1633" />
<glyph unicode="&#x2004;" horiz-adv-x="544" />
<glyph unicode="&#x2005;" horiz-adv-x="408" />
<glyph unicode="&#x2006;" horiz-adv-x="272" />
<glyph unicode="&#x2007;" horiz-adv-x="272" />
<glyph unicode="&#x2008;" horiz-adv-x="204" />
<glyph unicode="&#x2009;" horiz-adv-x="326" />
<glyph unicode="&#x200a;" horiz-adv-x="90" />
<glyph unicode="&#x2010;" horiz-adv-x="1409" d="M85 528v172h1231v-172h-1231z" />
<glyph unicode="&#x2011;" horiz-adv-x="1409" d="M85 528v172h1231v-172h-1231z" />
<glyph unicode="&#x2012;" horiz-adv-x="1409" d="M85 528v172h1231v-172h-1231z" />
<glyph unicode="&#x2013;" horiz-adv-x="1202" d="M85 528v172h1024v-172h-1024z" />
<glyph unicode="&#x2014;" d="M0 524v172h2048v-172h-2048z" />
<glyph unicode="&#x2018;" d="M1414 1166q-8 53 3 107q14 68 51 121.5t69 80.5t59.5 45.5t49.5 16.5t22.5 -14.5t-8.5 -19.5l-42 -34q-37 -30 -59 -66.5t-34.5 -77t-10.5 -62.5t9 -25q4 -3 26 6t55 6.5t63 -35t27.5 -82t-38.5 -83.5t-91 -31q-72 2 -107.5 48t-43.5 99z" />
<glyph unicode="&#x2019;" d="M345.5 1422.5q1.5 50.5 37.5 83.5t92 31q72 -3 107 -48.5t43.5 -98.5t-2.5 -106q-15 -69 -52 -122.5t-69 -80.5t-59.5 -45.5t-49.5 -16.5t-22.5 14.5t9.5 20.5l42 34q35 28 58.5 66.5t34 76t9 61t-6.5 27.5q-5 2 -27.5 -7t-55.5 -6.5t-61.5 34.5t-27 82.5z" />
<glyph unicode="&#x201c;" d="M1221.5 1161.5q-7.5 52.5 2.5 106.5q14 70 50 121.5t70.5 81t60 47t47.5 15.5t23 -15t-8 -20l-42 -33q-35 -28 -58 -66.5t-35.5 -78t-10.5 -62t9 -25.5q4 -3 26 6t55 6.5t63 -34.5t27.5 -82t-38.5 -83t-91 -31q-72 2 -107.5 48t-43 98.5zM1583 1161q-8 51 4 107 q15 71 50 122t69 79.5t60.5 47t47.5 17t23 -15t-7 -20.5l-42 -33q-34 -27 -59 -68.5t-35.5 -77t-9 -59.5t7.5 -27q4 -4 27 5.5t55.5 7t62.5 -34.5t27.5 -81.5t-39.5 -83t-90 -31.5q-71 2 -107.5 48.5t-44.5 97.5z" />
<glyph unicode="&#x201d;" d="M172.5 1419.5q1.5 50.5 37.5 83.5t92 31q72 -3 107 -48.5t43 -98.5t-2 -106q-15 -70 -51.5 -123t-69 -80t-60 -45.5t-49.5 -16.5t-22.5 14.5t9.5 20.5l42 34q35 28 58.5 66.5t34 76t9 61t-6.5 27.5q-5 2 -27.5 -7t-55.5 -6.5t-61.5 34.5t-27 82.5zM526.5 1419 q2.5 50 39 83.5t92.5 31.5q72 -3 107.5 -48.5t43 -98t-3.5 -106.5q-15 -72 -50.5 -123.5t-69 -79.5t-60.5 -46t-48.5 -16t-22.5 14.5t8 20.5l42 34q36 29 59.5 67t34 75.5t9 61t-6.5 27.5q-5 3 -28 -6.5t-55.5 -7t-62.5 34.5t-27.5 82z" />
<glyph unicode="&#x2026;" d="M208 617q0 74 48 118t110 49q37 2 81.5 -18.5t69 -59.5t25 -100.5t-47 -110t-119 -49t-119.5 48.5t-48 122zM859 617q0 73 48 117.5t110 49.5q36 2 81.5 -18.5t70.5 -59.5t25 -88q-1 -74 -48.5 -122.5t-118 -49t-120 49t-48.5 121.5zM1494 617q0 73 48.5 117.5 t108.5 49.5q37 2 82.5 -18.5t70.5 -59.5t24.5 -100.5t-48.5 -110.5t-118 -48.5t-119.5 49.5t-48.5 121z" />
<glyph unicode="&#x202f;" horiz-adv-x="326" />
<glyph unicode="&#x205f;" horiz-adv-x="408" />
<glyph unicode="&#x25fc;" horiz-adv-x="955" d="M0 0v955h955v-955h-955z" />
</font>
</defs>
</svg>
